<svg width="20" height="21" viewBox="0 0 20 21" fill="none" xmlns="http://www.w3.org/2000/svg">
<path d="M8.50005 19H5.57405C4.85745 19 4.16453 18.7434 3.62068 18.2768C3.07683 17.8102 2.71797 17.1643 2.60905 16.456L1.35405 8.304C1.31022 8.01898 1.32854 7.72786 1.40775 7.45059C1.48697 7.17331 1.62521 6.91645 1.81299 6.6976C2.00078 6.47876 2.23367 6.30311 2.49569 6.1827C2.75772 6.06229 3.04268 5.99997 3.33105 6H14.67C14.9584 5.99997 15.2434 6.06229 15.5054 6.1827C15.7674 6.30311 16.0003 6.47876 16.1881 6.6976C16.3759 6.91645 16.5141 7.17331 16.5933 7.45059C16.6726 7.72786 16.6909 8.01898 16.647 8.304C16.5897 8.672 16.5474 8.948 16.5201 9.132" stroke="black" stroke-width="2" stroke-linecap="round" stroke-linejoin="round"/>
<path d="M6 9V4C6 3.20435 6.31607 2.44129 6.87868 1.87868C7.44129 1.31607 8.20435 1 9 1C9.79565 1 10.5587 1.31607 11.1213 1.87868C11.6839 2.44129 12 3.20435 12 4V9M15 20L18.35 16.716C18.5554 16.5167 18.7188 16.2782 18.8306 16.0146C18.9423 15.7511 19.0001 15.4678 19.0006 15.1816C19.0011 14.8953 18.9442 14.6119 18.8333 14.3479C18.7224 14.084 18.5598 13.845 18.355 13.645C17.9374 13.2359 17.3764 13.0062 16.7917 13.0051C16.2071 13.004 15.6452 13.2315 15.226 13.639L15.002 13.859L14.779 13.639C14.3614 13.2302 13.8006 13.0007 13.2162 12.9996C12.6318 12.9985 12.0701 13.2258 11.651 13.633C11.4455 13.8323 11.282 14.0707 11.1702 14.3342C11.0583 14.5977 11.0004 14.881 10.9999 15.1672C10.9993 15.4535 11.0561 15.737 11.1669 16.0009C11.2777 16.2648 11.4403 16.5039 11.645 16.704L15 20Z" stroke="black" stroke-width="2" stroke-linecap="round" stroke-linejoin="round"/>
</svg>
