<svg width="20" height="20" viewBox="0 0 20 20" fill="none" xmlns="http://www.w3.org/2000/svg">
<path d="M9.50005 19H5.57405C4.85745 19 4.16453 18.7434 3.62068 18.2768C3.07683 17.8102 2.71797 17.1643 2.60905 16.456L1.35405 8.304C1.31022 8.01898 1.32854 7.72786 1.40775 7.45059C1.48697 7.17331 1.62521 6.91645 1.81299 6.6976C2.00078 6.47876 2.23367 6.30311 2.49569 6.1827C2.75772 6.06229 3.04268 5.99997 3.33105 6H14.67C14.9584 5.99997 15.2434 6.06229 15.5054 6.1827C15.7674 6.30311 16.0003 6.47876 16.1881 6.6976C16.3759 6.91645 16.5141 7.17331 16.5933 7.45059C16.6726 7.72786 16.6909 8.01898 16.647 8.304L15.917 13.048" stroke="black" stroke-width="2" stroke-linecap="round" stroke-linejoin="round"/>
<path d="M6 9V4C6 3.20435 6.31607 2.44129 6.87868 1.87868C7.44129 1.31607 8.20435 1 9 1C9.79565 1 10.5587 1.31607 11.1213 1.87868C11.6839 2.44129 12 3.20435 12 4V9M13 17H19" stroke="black" stroke-width="2" stroke-linecap="round" stroke-linejoin="round"/>
</svg>
